<svg width="187" height="50" viewBox="0 0 187 50" fill="none" xmlns="http://www.w3.org/2000/svg">
<rect y="1" width="48" height="48" rx="5" fill="#5AA080"/>
<path d="M18.5333 13.8V30.6M18.5333 13.8H26.5333C27.9478 13.8 29.3043 14.39 30.3045 15.4402C31.3047 16.4904 31.8666 17.9148 31.8666 19.4C31.8666 20.8852 31.3047 22.3096 30.3045 23.3598C29.3043 24.41 27.9478 25 26.5333 25H18.5333V13.8ZM18.5333 30.6C17.1188 30.6 15.7622 31.19 14.762 32.2402C13.7619 33.2904 13.2 34.7148 13.2 36.2M18.5333 30.6H29.2C31.3217 30.6 33.3565 29.42 34.8568 27.3196C36.3571 25.2192 37.2 22.3704 37.2 19.4C37.2 16.4296 36.3571 13.5808 34.8568 11.4804C33.3565 9.38001 31.3217 8.20001 29.2 8.20001H13.2V36.2M13.2 36.2C13.2 37.6852 13.7619 39.1096 14.762 40.1598C15.7622 41.21 17.1188 41.8 18.5333 41.8V33.4" stroke="#F3F6FF" stroke-width="2" stroke-linecap="square" stroke-linejoin="round"/>
<path d="M72.416 32.968V34H56V32.968H58.328V17.224H64.088C66.632 17.224 68.488 17.712 69.656 18.688C70.824 19.664 71.408 21.168 71.408 23.2C71.408 25.232 70.808 26.72 69.608 27.664C68.424 28.608 66.6 29.08 64.136 29.08H61.16V32.968H72.416ZM64.448 26.512C66.016 26.512 67.08 26.216 67.64 25.624C68.216 25.016 68.504 24.136 68.504 22.984C68.504 21.816 68.144 20.992 67.424 20.512C66.704 20.032 65.576 19.792 64.04 19.792H61.16V26.512H64.448ZM92.5423 32.968V34H87.1903L85.5103 30.184H77.1103L75.4303 34H70.0782V32.968H72.8623L79.7983 17.224H82.8223L89.7583 32.968H92.5423ZM84.3583 27.568L81.3103 20.656L78.2623 27.568H84.3583ZM108.291 32.968V34H103.107L99.0988 28.36H95.3788V34H90.2188V32.968H92.5468V17.224H98.7868C101.347 17.224 103.179 17.656 104.283 18.52C105.387 19.384 105.939 20.768 105.939 22.672C105.939 25.44 104.731 27.184 102.315 27.904L105.963 32.968H108.291ZM98.9068 25.792C100.507 25.792 101.595 25.544 102.171 25.048C102.747 24.552 103.035 23.76 103.035 22.672C103.035 21.568 102.739 20.816 102.147 20.416C101.555 20 100.499 19.792 98.9788 19.792H95.3788V25.792H98.9068ZM110.008 32.968V17.224H112.84V25.408L120.52 17.224H124.12L117.376 24.568L123.472 32.992V32.968H125.8V34H120.856L115.288 26.656L112.84 29.296V34H107.68V32.968H110.008ZM139.722 32.968V34H124.578V32.968H126.906V17.224H129.738V31.312H137.394V32.968H139.722ZM140.5 32.968V17.224H143.332V32.968H145.66V34H138.172V32.968H140.5ZM162.448 32.968V34H145.648V32.968H152.032L145.72 17.224H148.888L154.048 29.752L159.208 17.224H162.376L156.04 32.968H162.448ZM164.781 32.968V17.224H176.565V19.888H167.613V24.328H175.653V26.848H167.613V31.336H176.853V32.968H179.181V34H162.453V32.968H164.781Z" fill="#15593A"/>
</svg>
