<svg width="1240" height="634" viewBox="0 0 1240 634" fill="none" xmlns="http://www.w3.org/2000/svg">
<path d="M1240 228.14L1188.28 244.636L1197.51 275.219L1240 279.533V286.385L1133.64 275.598L1136.15 294.257L1239.86 328.516V342.854L1185.21 324.836L1174.59 365.951L1237.9 388.412L1240 383.969L1216.5 395.719L1208.55 385.241L1189.68 429.909C1185.21 429.909 1173.42 438.409 1189.68 446.535L1168 466.074C1129.43 445.771 1157.82 432.066 1122.32 421.536L1114.21 517.726L1168 487.776L1161.31 503.887L1168 500.155L1178 512.77L1159.35 519.624L1153.5 506.559L1168 487.776L1182.69 500.155L1168 466.074L1182.69 480.157H1159.35H1147.47L1050.5 535.868V628.503L997.171 633.198L951.801 621.142L950.674 633.198H935.812L937.272 617.336L878.005 601.601L861.218 633.198H833.884L838.312 624.822L725.107 595.636L708.05 623.173L741.976 633.198H717.99L705.534 629.518L704.856 633.198H697.361L698.4 627.361L631.872 607.691L620.432 633.198H612.342L624.749 605.661L505.67 570.382L512.259 633.198H497.21L487.362 538.531L401.685 606.295C402.169 610.926 403.606 623.886 404.522 633.198H397.231L394.558 608.452L352.763 610.986L355.887 633.198H330.862L328.169 613.529L296.437 618.094C297.393 623.625 298.297 628.813 299.044 633.198H291.387L289.035 619.112L257.028 623.807L258.379 633.198H250.88L249.615 624.95L205.733 631.295L205.938 633.198H191.079L185.468 580.154L169.116 584.613C172.331 598.738 180.129 597.001 181.974 612.514L179 624.569C178.693 621.971 164.292 603.068 163.944 600.505V612.514L169.116 623.807L159.847 617.76L155.138 611.374L153 604.592V595.965V590.062C151.602 582.194 160.317 580.91 158.5 573.55L144.5 567.593L136 557.368L123.134 546.925C117.823 526.874 90.4272 544.75 80.784 531.299C80.0851 530.41 79.2464 529.395 78.5489 528.38L70.5 538.751L62.5 520.589L47.7995 514.924V504.399L40.5311 504.019L47.7995 498.339L40.5311 492.59C40.5311 488.28 56.7848 490.247 42.5 482.9L44.723 471.785C48.6367 473.688 36.6173 453.387 40.5311 455.545L31.3072 407.319L0.138393 396.28L0.138393 383.84L16.4923 348.308L0.138393 342.855L0.138393 328.517L3.77259 329.658L17.8886 288.162L0.138393 286.385L0.138393 279.533L20.1251 281.69L31.3072 249.204C29.9094 244.762 26.415 233.595 22.6424 221.032L0 228.267L0 221.159C8.24544 218.494 15.6522 216.21 20.6856 214.56C17.4693 204.154 14.2558 193.622 11.8796 185.754L0.138393 190.96L0.138393 165.838L5.03057 163.553L0.138393 148.194L0.138393 99.8455C7.54517 123.196 14.5312 144.768 18.5889 157.585L67.0872 136.011L57.7222 85.6347L0.138393 92.1053L0.138393 78.5276L55.346 72.1825L45.7014 20.6618L0.138393 13.0472L0.138393 0.230347H59.4923L79.526 3.65778L80.6331 0.230347H88.2945L86.9314 4.41858L96.8957 0.230347H132.316L111.813 8.86011L225.295 27.7665C229.555 21.9451 235.323 16.9252 242.208 13.0461L233.715 0.229187H242.518L248.915 9.87402C255.671 7.24658 263.071 5.8595 270.579 5.81348C271.697 5.81348 272.675 5.94012 273.792 5.94012L274.971 0.230347H300.232L297.692 12.5396C311.255 19.6478 321.173 32.087 323.969 46.6754L388.967 65.5831L403.404 0.230347H411.026L404.342 30.3055C409.652 31.0663 419.856 32.5901 430.897 34.2383L435.848 0.230347H443.358L438.165 35.2545C448.647 36.7761 458.989 38.2999 465.705 39.3151L473.836 0.229187H488.941L480.374 41.8519L558.363 57.3343L499.598 0.230347H509.909L569.546 58.3505L600.851 35.128L578.033 0.231384H595.227L612.444 26.4993L638.581 6.95197L634.2 0.22583H642.938L644.592 2.76367L648.011 0.22583H659.689L616.364 32.3381L660.67 100.099L680.445 0.230347H705.681L700.505 26.4982L783.665 39.1874L793.877 0.229187H801.521L790.932 40.3347L840.269 47.8227C843.75 31.0719 847.232 14.8464 850.312 0.23468H865.425L858.72 31.9603L936.567 42.1118L943.561 11.0136L894.058 0.22583H926.316L944.958 4.28754L945.862 0.22583H961.085L951.388 43.8744L997.092 49.8385L1007.87 0.221436H1015.32L1004.36 50.8536L1060.27 58.0873L1071.19 0.222534H1086.33L1075.09 59.992L1130.01 67.1002L1140.08 0.223694H1154.98L1150.56 29.2838L1204.09 36.644L1194.17 5.55365L1162.67 0.222534H1239.86V13.3004L1210.51 8.34808C1215.82 24.5924 1224.48 51.7477 1233.29 79.2851L1239.86 78.5243V92.1053L1237.48 92.3585C1238.32 94.8975 1239.02 97.3076 1239.86 99.8443V148.194L1222.25 92.6129L1183.67 87.6638L1214.28 177.254L1240 165.838V190.96L1180.18 217.607L1186.33 238.164C1195.55 235.247 1220.29 227.379 1240 221.034L1240 228.14ZM1217.64 78.5276L1206.59 43.8843L1149.85 36.1431L1144.82 69.1371L1217.64 78.5276ZM1146.77 535.868L1165 528.633L1192.48 519.624L1147.47 526.476L1146.77 535.868ZM1181.02 192.1L1207.43 180.3L1195.69 146.417L1168.58 152.762L1181.02 192.1ZM1182.69 427.242L1201.42 382.705L1172.91 372.553L1160.75 419.378C1168.02 421.786 1175.29 424.451 1182.69 427.242ZM1166.62 146.29L1193.59 139.945L1175.43 86.6487L1146.64 82.968L1166.62 146.29ZM1132.66 268.747L1189.54 274.459L1173.33 220.655L1128.6 240.577L1132.66 268.747ZM1161.31 358.717L1171.23 320.141L1134.05 307.96L1123.01 332.324L1161.31 358.717ZM1127.62 215.83L1167.46 198.066L1130.56 80.8112L1103.44 77.2571L1084.58 196.034L1127.62 215.83ZM1146.77 414.681L1159.35 365.824L1118.12 337.399L1066.69 364.809L1065.85 392.727C1093.32 398.805 1120.34 406.135 1146.77 414.681H1146.77ZM1068.37 566.45L1106.52 539.294L1132.66 528.633L1094.78 534.343L1068.37 566.45ZM1128.47 291.589L1121.62 243.621L1085.84 259.614C1087.7 264.682 1088.64 269.94 1088.63 275.223C1088.66 276.282 1088.61 277.341 1088.49 278.395L1128.47 291.589ZM1116.87 328.008L1127.07 305.547L1085.27 291.714C1083.9 295.397 1081.97 298.934 1079.54 302.248L1116.87 328.008ZM1072.56 240.449L1119.24 219.637L1051.03 188.162L1043.77 226.738C1054.98 228.643 1065.1 233.462 1072.56 240.449H1072.56ZM1106.52 518.863L1114.91 419.374C1094.08 413.41 1076.75 409.096 1065.43 406.557L1061.66 525.589L1106.52 518.863ZM1111.83 332.829L1075.07 307.449C1073.08 309.602 1070.83 311.6 1068.37 313.414L1066.97 356.813L1111.83 332.829ZM1065.43 601.601L1087.51 535.359L1061.38 539.294L1056.5 623.173L1065.43 601.601ZM1088.21 125.981L1096.04 76.3652L1072.56 73.3198L1063.75 121.032L1088.21 125.981ZM1077.59 192.858L1087.1 132.708L1062.36 127.632L1052.44 181.31L1077.59 192.858ZM1034.26 301.99C1050.62 301.99 1063.76 289.934 1063.76 275.213C1063.76 260.365 1050.48 248.437 1034.26 248.437C1017.91 248.437 1004.77 260.493 1004.77 275.213C1004.77 289.934 1018.05 301.867 1034.26 301.994L1034.26 301.99ZM1043.63 147.427L1057.88 71.4161L1028.96 67.6089L1013.44 142.605L1043.63 147.427ZM1042.24 356.941L1043.21 323.694C1040.28 324.224 1037.27 324.438 1034.27 324.33C1031.36 324.311 1028.47 324.099 1025.6 323.694L1010.65 351.865L1042.24 356.941ZM1008.27 414.045L1040.28 417.725L1041.96 363.921L1007.3 358.338L984.653 400.974L1008.27 414.045ZM1009.11 231.693C1015.1 228.737 1021.83 226.874 1028.82 226.236L1041.12 160.758L946.778 145.653L1009.11 231.693ZM1036.93 525.335L1040.14 424.451L1009.96 421.024L987.173 516.706L1036.93 525.335ZM1033.7 628.883L1036.5 539.04L1017.49 535.74L1007.57 621.904L1033.7 628.883ZM1006.03 141.467L1021.68 66.5982L999.736 63.806L959.765 133.98L1006.03 141.467ZM1005.47 574.316L1010.09 534.47L921.752 519.116L904.142 552.232L1005.47 574.316ZM1000.3 619.871L1004.77 581.042L900.927 558.452L884.574 589.291L1000.3 619.871ZM994.154 455.285L1002.82 418.993L981.296 407.192L963.685 440.439L994.154 455.285ZM994.431 241.844C996.909 239.437 999.67 237.227 1002.68 235.244L936.708 144.005L929.44 142.862L912.668 217.985L994.431 241.844ZM968.714 379.276L1002.68 315.191C996.031 310.79 990.644 305.293 986.878 299.075L940.615 309.608L968.714 379.276ZM979.755 515.441L992.474 462.144L960.329 446.535L928.463 506.559L979.755 515.441ZM952.077 132.717L991.91 62.7953L948.443 57.2121L932.371 129.544L952.077 132.717ZM876.188 301.106L980.034 277.249V275.218C980.012 270.68 980.717 266.159 982.13 261.766L890.583 235.244L857.74 247.301L876.188 301.106ZM944.807 424.07L964.236 387.651L945.513 341.209L910.851 349.966L944.807 424.07ZM855.776 356.941L942.716 334.99L933.213 311.261L845.026 331.435L855.776 356.941ZM910.984 487.776L940.475 432.195L928.601 406.182L885.976 428.263L910.984 487.776ZM917.693 127.26L933.766 55.3074L855.917 45.1549L841.101 114.949L917.693 127.26ZM883.171 421.914L925.665 399.962L903.583 351.871L858.439 363.292L883.171 421.914ZM898.405 213.802L914.759 140.454L838.307 128.145L824.744 192.355L898.405 213.802ZM885.409 535.868L902.044 504.522L874.504 439.044L817.071 515.057L885.409 535.868ZM784.218 266.971L879.538 231.948L742.15 191.976L784.218 266.971ZM844.876 612.383L878.979 548.045L809.516 526.981L775.414 594.495L844.876 612.383ZM781.988 466.074L839.006 474.07L871.293 431.434L860.39 405.547L745.643 385.111C738.655 403.257 730.547 424.322 723.42 442.722L781.988 466.074ZM759.485 327.755L869.061 302.629L850.892 249.713L747.044 287.908L759.485 327.755ZM857.181 398.059L830.486 334.61L758.648 351.106C755.991 357.959 752.218 367.603 748.025 378.644L857.181 398.059ZM827.831 105.94C831.324 89.1888 835.096 71.6772 838.732 54.5465L699.106 33.2221L696.871 44.1353L827.831 105.94ZM809.801 512.77L834.4 480.157L784.223 473.177L780.171 503.887L809.801 512.77ZM810.493 188.165C813.709 173.06 819.578 144.893 826.426 112.788L816.503 108.092L753.191 171.541L810.493 188.165ZM779.606 134.994L809.654 105.045L695.606 51.2413L688.758 85.5036L779.606 134.994ZM768.15 592.716L802.393 524.827L776.815 517.086L744.809 586.627L768.15 592.716ZM743.132 282.068L777.374 269.505L733.066 190.45L713.081 261.387L743.132 282.068ZM773.182 501.476L777.096 471.274L721.047 449.061C715.596 463.146 710.984 475.076 708.327 481.927L773.182 501.476ZM745.365 169.255L774.584 140.071L687.37 92.6107L676.187 149.209L745.365 169.255ZM745.78 549.569L762.693 512.768L703.713 494.875L691.273 531.422L745.78 549.569ZM752.21 329.527L739.211 288.032L710.979 268.616L689.874 343.74L752.21 329.527ZM724.815 418.738L750.113 353.257L682.614 368.742L670.315 406.05L724.815 418.738ZM730.413 582.82L742.852 555.662L633.277 519.122L621.535 554.776L730.413 582.82ZM701.201 479.905L722.306 425.084L668.077 412.521L651.026 464.677L701.201 479.905ZM712.383 209.104L719.089 185.374L677.859 173.318L668.635 198.317L712.383 209.104ZM504.832 563.022L700.783 621.015L717.693 593.733L502.317 538.151L504.832 563.022ZM700.644 251.358L710.706 215.572L666.401 204.658L655.222 234.988L700.644 251.358ZM608.819 293.868L624.612 318.741L685.829 303.006L696.591 264.556L602.807 230.546L608.819 293.868ZM684.151 528.881C686.807 521.267 693.237 502.612 696.591 492.587L646.835 477.482L635.373 512.632L684.151 528.881ZM646.835 353.635L673.53 347.543L683.872 310.742L628.524 324.836L646.835 353.635ZM648.231 232.574L670.734 171.282L603.226 151.622L578.906 207.457L648.231 232.574ZM646.276 431.936L665.702 372.418L601.129 387.264L646.276 431.936ZM652.425 142.229L656.758 120.402L629.218 78.2722C618.596 76.2408 596.513 71.7994 572.055 66.978L559.476 115.199L652.425 142.229ZM536.978 499.066L618.602 516.325L643.759 439.551L593.024 389.047L533.902 402.628L536.978 499.066ZM584.08 367.976L639.287 355.287L604.206 299.959C594.422 306.558 566.191 325.846 557.385 331.81L584.08 367.976ZM623.773 70.2733L604.624 40.96L577.513 61.1426L623.773 70.2733ZM607.281 551.095L616.505 522.8L564.233 511.76L555.147 537.647L607.281 551.095ZM553.052 326.233L601.271 293.366L595.12 227.888L591.627 226.619L528.872 293.618L553.052 326.233ZM571.92 204.917L596.099 149.462L552.353 136.773L530.969 190.07L571.92 204.917ZM560.039 249.967L584.359 223.953L524.261 202.254L511.122 218.624L560.039 249.967ZM556.126 374.453L576.393 369.759L551.375 336.005L535.026 347.804L556.126 374.453ZM552.491 113.17L564.79 65.5831C530.688 58.7303 494.21 51.4978 479.114 48.579L470.728 89.4409L552.491 113.17ZM500.78 523.689L547.88 535.867L556.964 510.233L498.124 497.794L500.78 523.689ZM504.552 309.358L555.147 255.173L506.649 224.082L471.709 267.99L504.552 309.358ZM530.549 342.35C535.859 338.543 543.268 333.214 547.18 330.421L523.84 299.078L508.885 315.071L530.549 342.35ZM524.12 187.662L545.224 134.745L517.131 126.624C511.261 137.286 500.638 155.811 488.622 174.845L524.12 187.662ZM446.13 399.452L540.471 377.879L493.093 318.108L432.434 334.605L446.13 399.452ZM497.425 490.691L529.571 497.544L526.496 404.405L489.318 412.907L497.425 490.691ZM467.096 262.149L516.994 199.588L481.074 186.644C470.73 202.506 459.689 217.734 449.765 228.14C448.021 229.914 446.155 231.608 444.176 233.215L467.096 262.149ZM434.952 222.683C436.195 221.638 437.361 220.537 438.445 219.383C460.668 195.906 490.298 144.894 502.876 122.433L451.437 107.459L383.651 168.371L434.952 222.683ZM387.57 533.583L485.829 523.05L482.474 491.58L382.682 503.508L387.57 533.583ZM439.841 318.616L484.008 306.563L459.968 276.107L424.048 288.676L439.841 318.616ZM481.774 484.854L474.647 416.201L460.116 419.501L432.721 490.693L481.774 484.854ZM351.933 604.265L396.379 601.599L477.444 537.515L344.805 551.854L351.933 604.265ZM456.337 85.2526L464.445 46.0412L402.947 36.905L396.099 67.7399L456.337 85.2526ZM358.638 304.278L455.355 270.397L432.293 241.335C402.803 258.976 353.885 273.314 323.976 281.055L358.638 304.278ZM381.56 496.783L424.462 491.706L451.437 421.531L372.189 439.679L381.56 496.783ZM327.89 426.609L439.002 401.229L425.163 336.637L319.64 365.57L327.89 426.609ZM373.872 158.092L435.509 102.765L353.186 78.9075L332.922 114.819L373.872 158.092ZM397.353 330.293L432.573 320.648L416.921 291.081L365.627 309.099L397.353 330.293ZM373.592 252.123C391.902 245.903 409.932 238.671 423.21 230.799L403.084 209.606L363.53 228.387L373.592 252.123ZM360.596 222.048L398.053 204.283L373.175 178.142L351.649 201.11L360.596 222.048ZM317.971 351.994L388.551 332.705L314.752 283.344C312.654 283.852 310.699 284.36 308.881 284.741L317.971 351.994ZM342.983 538.405L380.165 534.344L365.072 441.329L330.968 449.196L342.983 538.405ZM295.183 183.598L346.058 196.669L368.281 172.939L297.424 97.9418C293.361 100.085 288.937 101.752 284.286 102.891L295.183 183.598ZM307.063 271.157C320.764 267.858 343.402 261.893 366.464 254.407L344.662 203.14L296.16 190.704L307.063 271.157ZM327.749 109.361L346.058 76.8761L322.297 69.8957C319.77 77.1848 315.286 83.9418 309.16 89.693L327.749 109.361ZM295.323 611.374L327.191 606.806L320.343 555.665L287.079 562.773C288.754 572.794 292.249 593.224 295.323 611.372V611.374ZM318.525 542.339L306.085 450.337L291.277 453.891L286.384 549.191L318.525 542.339ZM303.149 428.766L295.607 372.418L235.508 406.426L303.149 428.766ZM270.444 81.9529C286.798 81.9529 299.936 69.8969 299.936 55.1785C299.936 40.4602 286.798 28.4019 270.444 28.4019C254.09 28.4019 240.956 40.458 240.956 55.1785C240.956 70.0245 254.227 81.9529 270.444 81.9529ZM229.354 401.989L294.626 365.063L291.689 343.362L219.292 343.235L229.354 401.989ZM292.389 439.551L188.961 405.294L163.944 469.758L292.389 439.551ZM218.175 336.383L290.852 336.511L281.207 264.559L207.132 272.172L218.175 336.383ZM256.049 617.082L287.916 612.514L279.809 564.293L249.201 570.765L256.049 617.082ZM194.273 521.912L281.069 507.954L283.724 455.545L189.663 477.626L194.273 521.912ZM199.025 567.593L278.829 550.711L280.647 514.924L194.972 528.76L199.025 567.593ZM249.341 261.132L280.229 257.958L274.779 217.483L244.029 221.798L249.341 261.132ZM197.347 214.685L272.96 204.023L266.81 158.084L189.521 168.872L197.347 214.685ZM188.402 162.152L265.833 151.238L259.403 103.272C247.962 100.989 237.788 95.7224 230.479 88.298L179.603 110.885L188.402 162.152ZM205.036 624.569L248.642 618.225L241.933 572.414L200.423 581.17L205.036 624.569ZM206.154 265.574L241.933 261.895L236.762 222.811L199.723 228.012L206.154 265.574ZM74.0747 132.838L218.313 68.5018C218.288 68.1534 218.195 67.8105 218.036 67.4856L65.129 84.7451L74.0747 132.838ZM62.6158 71.4195L216.356 54.1623C216.495 52.513 216.633 50.9903 216.771 49.341L53.5289 22.0568L62.6158 71.4195ZM213.98 399.325L204.056 341.586L109.015 317.476L91.8249 358.845L213.98 399.325ZM202.798 334.225L196.788 299.075L123.55 282.705L111.67 311.131L202.798 334.225ZM195.671 291.967L186.585 239.178L139.624 244.635L126.353 276.487L195.671 291.967ZM166.6 557.368L184.77 573.55L174.987 481.167L132.915 491.192L166.6 557.368ZM154.585 229.155L184.215 225.73L165.626 117.232L134.174 131.186L154.585 229.155ZM169.116 436.126L181.974 403.005L139.349 388.919L123.134 424.451L169.116 436.126ZM155.138 471.785L166.6 442.47L120.198 430.67L94.7589 485.995L155.138 471.785ZM44.5846 241.845L147.172 230.043L137.947 185.629C121.316 190.827 57.8634 210.119 36.8969 216.595L44.5846 241.845ZM93.3625 523.939C104.265 539.294 121.289 516.036 127.295 538.751L155.138 552.828L125.788 492.848L76.5907 504.399C82.8306 510.537 88.4396 517.072 93.3625 523.939ZM34.94 209.994L136.69 178.904L127.321 134.236L25.5708 179.539L34.94 209.994ZM115.865 422.547L132.357 386.635L63.5914 363.921L47.7995 405.294L115.865 422.547ZM104.683 308.974L131.239 245.525L85.9557 250.727L68.6248 294L104.683 308.974ZM64.4315 493.356L85.9557 488.28L113.067 428.891L45.4205 411.634L55.2062 463.375C69.389 471.681 52.2977 483.172 64.4315 493.356ZM84.5579 356.561L101.89 315.192L62.476 298.95L32.5666 290.829L17.7502 334.355L84.5579 356.561ZM61.6373 291.588L77.5705 251.615L44.723 255.423L34.8002 284.355L61.6373 291.588ZM51.7589 520.589L74.2145 522.8C68.4632 516.173 62.1098 509.895 55.2062 504.019L47.7995 507.954L51.7589 520.589ZM33.682 400.974L49.6152 359.224L23.4783 350.595L5.03057 390.823L33.682 400.974Z" fill="white"/>
</svg>
